<?xml version="1.0" encoding="utf-8" ?><svg xmlns="http://www.w3.org/2000/svg" xmlns:xlink="http://www.w3.org/1999/xlink" width="1024" height="1024" viewBox="0 0 1024 1024"><path fill="#057987" transform="scale(0.5 0.5)" d="M335.475 165.096C353.093 158.854 371.51 155.156 390.172 154.114C418.289 152.675 446.422 153.462 474.574 153.489L612.651 153.554L1045.17 153.668L1450 153.205L1580.1 153.43C1632.99 153.569 1689.83 150.573 1739.01 173.879C1741.75 175.205 1744.43 176.66 1747.04 178.24C1758.84 183.113 1771.6 190.909 1782.33 198.086C1799.25 210.76 1814.55 223.11 1828.11 239.649C1832.16 244.447 1837 249.905 1840.77 254.817C1846.04 261.555 1850.02 266.965 1854.76 274.074C1860.51 283.862 1869.27 298.261 1872.74 308.729C1882.07 329.47 1890.46 357.83 1892.16 380.41C1894.44 409.707 1894.1 434.315 1894.11 463.729L1894.11 559.189L1894.13 870.687L1894 1377.44L1893.96 1544.3C1893.96 1572.86 1896.88 1665.85 1888.54 1688.47C1886.29 1704.96 1877.81 1730.23 1870.14 1745.17C1851.6 1782.12 1828.43 1812.85 1795.97 1838.57C1782.44 1848.95 1763.54 1862.66 1747.64 1868.76C1739.98 1872.49 1731.04 1876.43 1724.29 1881.43C1693.13 1907.22 1611.13 1902.54 1571.27 1902.37L1452.4 1902.11L1008.89 1902.11L610.679 1902.76L486.026 1903.09C452.075 1903.16 419.51 1903.66 385.599 1900.86C353.491 1898.22 333.022 1889.5 305.892 1873.17C266.767 1853.06 232.417 1824.77 205.165 1790.24L198.321 1780.56C148.682 1712.39 152.922 1644.4 152.79 1565.23L152.684 1427.69L152.773 989.532L152.958 588.069L153.123 477.292C153.091 436.077 151.196 392.885 160.416 352.634C176.3 285.638 217.998 227.625 276.437 191.216C285.82 185.267 293.105 181.39 303.426 177.384C311.459 172.623 326.222 168.084 335.475 165.096Z"/><path fill="#F3FCFB" transform="scale(0.5 0.5)" d="M305.892 1873.17C315.544 1873.71 328.354 1881.12 338.34 1884.1C369.744 1893.47 400.456 1895.26 432.959 1895.14C480.35 1894.97 527.813 1895 575.235 1895L893.597 1894.99L1627.05 1894.99C1640.74 1894.87 1656.07 1894.31 1669.56 1892.27C1677.25 1891.12 1684.9 1889.69 1692.48 1887.96C1698.55 1886.55 1719.74 1880.16 1724.29 1881.43C1693.13 1907.22 1611.13 1902.54 1571.27 1902.37L1452.4 1902.11L1008.89 1902.11L610.679 1902.76L486.026 1903.09C452.075 1903.16 419.51 1903.66 385.599 1900.86C353.491 1898.22 333.022 1889.5 305.892 1873.17Z"/><path fill="#057785" transform="scale(0.5 0.5)" d="M335.475 165.096C353.093 158.854 371.51 155.156 390.172 154.114C418.289 152.675 446.422 153.462 474.574 153.489L612.651 153.554L1045.17 153.668L1450 153.205L1580.1 153.43C1632.99 153.569 1689.83 150.573 1739.01 173.879C1741.75 175.205 1744.43 176.66 1747.04 178.24C1738.11 178.574 1725.64 178.003 1717.34 174.831C1702.82 169.283 1694.62 161.311 1678.08 160.567C1634.04 158.586 1589.95 159.019 1545.89 159.087L1353.41 159.305L583.049 158.08L472.521 159.084C434.582 159.3 396.102 157.096 358.577 163.575C350.613 164.95 343.516 165.438 335.475 165.096Z"/><path fill="#057785" transform="scale(0.5 0.5)" d="M1782.33 198.086C1799.25 210.76 1814.55 223.11 1828.11 239.649C1820.93 238.796 1815.2 241.654 1809.88 238.372C1807.12 234.857 1807.15 231.056 1806.49 226.48C1803.28 225.313 1799.52 224.467 1796.17 223.619C1793.52 219.101 1791.73 214.739 1789.63 209.957C1785.53 209.487 1779.34 209.383 1776.71 206.555L1777.3 204.031C1779.29 202.26 1779.85 201.86 1781.34 199.616L1782.33 198.086Z"/><path fill="#057785" transform="scale(0.5 0.5)" d="M1747.64 1868.76C1748.59 1864.15 1747.72 1858.3 1749.99 1855.94C1764.12 1856.52 1767.06 1852.09 1776.32 1842.03C1780.49 1837.49 1790.18 1838.49 1795.97 1838.57C1782.44 1848.95 1763.54 1862.66 1747.64 1868.76Z"/><path fill="#057785" transform="scale(0.5 0.5)" d="M1872.74 308.729C1882.07 329.47 1890.46 357.83 1892.16 380.41C1882.51 370.588 1872.23 323.844 1872.74 308.729Z"/><path fill="#057785" transform="scale(0.5 0.5)" d="M1888.54 1688.47C1886.29 1704.96 1877.81 1730.23 1870.14 1745.17C1871.24 1735.49 1871.74 1718.49 1874.24 1710.28C1883.26 1701.38 1881.77 1694.73 1888.54 1688.47Z"/><path fill="#057785" transform="scale(0.5 0.5)" d="M276.437 191.216C285.82 185.267 293.105 181.39 303.426 177.384C299.588 198.311 294.502 190.99 276.437 191.216Z"/><path fill="#057785" transform="scale(0.5 0.5)" d="M1840.77 254.817C1846.04 261.555 1850.02 266.965 1854.76 274.074C1839.43 270.848 1839.01 270.251 1840.77 254.817Z"/><path fill="#057785" transform="scale(0.5 0.5)" d="M198.321 1780.56C202.249 1778.02 201.605 1777.48 205.238 1777.81C207.032 1780.83 205.702 1786.5 205.165 1790.24L198.321 1780.56Z"/><path fill="#ACD9F1" transform="scale(0.5 0.5)" d="M877.076 918.489C884.285 889.931 902.147 843.841 912.885 814.118C957.255 693.626 1007.33 553.774 1120.83 481.203C1164.04 453.58 1220.1 443.408 1269.37 456.069C1355.34 478.162 1367 576.265 1346.37 649.595C1315.9 757.876 1230.63 844.707 1135.63 900.601C1090.7 926.669 1043.26 944.772 993.895 959.699C961.694 1054.28 928.465 1154.62 879.965 1241.99C870.282 1259.43 859.815 1278.55 847.973 1294.55C1042.84 1376.75 1269.12 1558.22 1489.53 1444.83C1499.3 1439.81 1538.27 1393.31 1544.26 1425.37C1548.82 1449.81 1536.63 1484.02 1522.9 1504.11C1489.76 1552.53 1439.83 1582.22 1382.37 1592.16C1230.77 1618.41 1084.21 1534.69 961.384 1456.26C909.475 1423.11 855.151 1385.02 801.575 1356.76C746.388 1422.37 675.341 1466.62 588.487 1476.62C549.61 1481.1 495.562 1472.15 464.693 1445.93C445.202 1429.53 433.176 1405.94 431.35 1380.54C429.135 1351.75 439.579 1321.74 458.687 1300.23C496.627 1257.51 553.991 1243.28 608.848 1240.11C642.666 1238.12 676.598 1240.7 709.727 1247.77C722.388 1250.48 734.747 1254.32 746.999 1257C761.569 1223.16 779.435 1191.96 792.94 1156.9C816.021 1096.97 836.163 1036.28 857.976 976.04C792.972 975.357 750.482 965.209 691.389 939.376C690.225 939.967 681.589 942.665 679.752 943.316C677.549 941.714 677.457 942.341 677.105 940.624C679.058 937.501 679.077 936.959 679.462 933.267C647.397 914.788 615.552 886.455 599.285 852.382C573.401 798.727 575.483 747.238 592.359 690.858C619.943 598.71 736.695 530.078 830.075 557.034C839.909 559.873 865.028 573.137 859.12 586.757C855.016 596.217 823.337 593.861 814.58 596.9C770.143 605.548 719.695 641.149 700.572 682.935C700.977 688.882 701.845 693.718 698.716 698.814C695.537 700.547 697.28 700.229 693.202 699.047C685.862 716.386 682.754 735.433 681.487 754.37C677.188 818.624 710.238 875.903 770.624 900.199C808.93 915.61 836.538 917.879 877.076 918.489Z"/><path fill="#057785" transform="scale(0.5 0.5)" d="M679.462 933.267C683.002 934.988 688.205 937.322 691.389 939.376C690.225 939.967 681.589 942.665 679.752 943.316C677.549 941.714 677.457 942.341 677.105 940.624C679.058 937.501 679.077 936.959 679.462 933.267Z"/><path fill="#057785" transform="scale(0.5 0.5)" d="M700.572 682.935C700.977 688.882 701.845 693.718 698.716 698.814C695.537 700.547 697.28 700.229 693.202 699.047C695.774 692.567 697.162 689.048 700.572 682.935Z"/><path fill="#057785" transform="scale(0.5 0.5)" d="M1226.78 509.374C1305.12 503.894 1270.94 630.316 1254.7 669.712C1217.58 759.77 1141.49 838.009 1052.39 877.051C1039.64 882.126 1027.36 887.017 1014.83 892.597C1027.62 852.007 1041.04 811.616 1055.08 771.441C1080.47 697.024 1108.27 618.756 1155.75 554.725C1173.22 531.165 1197.02 513.242 1226.78 509.374Z"/><path fill="#057785" transform="scale(0.5 0.5)" d="M599.972 1298.41C641.582 1294.86 674.046 1304.19 712.798 1315.5C680.896 1358 658.53 1388.63 606.244 1410.39C580.685 1419.68 544.436 1425.12 521.609 1406.57C511.493 1398.42 505.099 1386.53 503.878 1373.6C502.564 1358.69 509.137 1343.16 518.802 1332.01C539.603 1308 569.892 1301.12 599.972 1298.41Z"/><path fill="#ACD9F1" transform="scale(0.5 0.5)" d="M1354.51 870.162C1373.07 869.475 1391.86 870.915 1408.96 878.744C1424.26 885.751 1437.55 898.75 1438.23 916.55C1439.19 941.588 1422.37 971.033 1412.46 993.599C1383.47 1059.63 1293.14 1232.23 1319.66 1300.35C1323.59 1310.44 1330.59 1318.54 1340.67 1322.79C1361.42 1331.56 1386.52 1325.22 1405.56 1315.18C1433.83 1300.26 1457.65 1278.42 1478.57 1254.5C1501.66 1228.09 1523.18 1198.47 1541.89 1168.77C1552.5 1151.94 1561.71 1133.99 1573.29 1117.8C1576.13 1113.83 1580.47 1107.66 1585.3 1106.26C1588.35 1105.37 1591.57 1106.17 1594.27 1107.69C1602.75 1112.45 1613.14 1128.74 1615.23 1138.21C1619.32 1156.67 1600.04 1182.31 1590.86 1197.08C1540.03 1280.01 1467.58 1372.38 1368.4 1396.93C1325.77 1407.49 1282.79 1404.4 1244.44 1381.69C1220.54 1367.53 1200.74 1341.72 1195.21 1314.39C1173.7 1208.1 1239.9 1085.97 1281.24 993.237L1309.91 928.217C1316.33 913.566 1322.65 897.936 1330.78 884.177C1336.77 874.024 1343.8 872.577 1354.51 870.162Z"/><path fill="#ACD9F1" transform="scale(0.5 0.5)" d="M1524.52 706.298C1526.82 726.981 1529.08 780.531 1517.97 798.806C1515.38 803.079 1505.72 808.246 1500.32 808.385C1465.97 809.216 1430.76 810.527 1396.5 808.085C1383.73 807.175 1376.15 794.391 1375.33 782.71C1374.16 766 1374.84 749.192 1374.83 732.396C1374.83 716.903 1373.91 700.941 1375.18 685.527C1378.67 655.302 1406.41 659.109 1428.48 658.789C1451.47 658.455 1474.26 660.495 1496.68 659.085C1490.77 665.023 1484.4 670.654 1478.18 676.286C1463.59 675.826 1448.35 676.063 1433.69 676.099C1438.76 681.991 1439.23 683.516 1446.56 685.47L1447.18 686.387C1440.4 688.771 1398.88 688.616 1393.03 685.944C1389.08 705.097 1390.07 765.105 1393.76 785.552C1395.31 794.11 1437.57 792.18 1446.73 792.104C1464.32 791.946 1481.92 791.933 1499.51 792.066C1519.79 771.418 1496.36 743.902 1515.12 717.154C1514.12 713.536 1518.69 712.779 1517.34 710.268C1515.14 706.159 1512.31 704.313 1513.32 699.017C1517.21 694.385 1519.81 695.19 1524.15 698.75C1525.7 703.135 1525.37 701.421 1524.52 706.298Z"/><path fill="#057785" transform="scale(0.5 0.5)" d="M1393.03 685.944C1399.55 670.47 1419.97 675.068 1433.69 676.099C1438.76 681.991 1439.23 683.516 1446.56 685.47L1447.18 686.387C1440.4 688.771 1398.88 688.616 1393.03 685.944Z"/><path fill="#057785" transform="scale(0.5 0.5)" d="M1515.12 717.154C1514.12 713.536 1518.69 712.779 1517.34 710.268C1515.14 706.159 1512.31 704.313 1513.32 699.017C1517.21 694.385 1519.81 695.19 1524.15 698.75C1525.7 703.135 1525.37 701.421 1524.52 706.298C1522.2 709.175 1517.77 715.151 1515.12 717.154Z"/><path fill="#ACD9F1" transform="scale(0.5 0.5)" d="M544.993 907.07C566.227 906.386 571.077 910.776 583.467 927.445C592.406 923.212 600.706 918.877 610.713 919.648C619.236 919.286 631.338 954.581 627.581 958.094C613.799 970.981 582.155 978.224 564.752 985C552.214 990.213 539.574 995.772 526.819 1000.14C505.323 1007.51 504.978 1005.09 497.786 986.218C486.438 956.432 500.512 962.719 519.269 950.576C521.956 925.273 518.061 916.159 544.993 907.07Z"/><path fill="#057785" transform="scale(0.5 0.5)" d="M548.831 924.476C555.574 923.493 561.842 928.147 562.851 934.886C563.86 941.624 559.23 947.911 552.495 948.946C545.724 949.987 539.395 945.326 538.38 938.55C537.366 931.774 542.051 925.464 548.831 924.476Z"/><path fill="#ACD9F1" transform="scale(0.5 0.5)" d="M477.706 982.331C481.145 984.779 484.075 992.439 484.542 996.036C486.28 1009.41 468.761 1004.55 461.951 1014.06C458.558 1026.01 475.456 1063.74 480.151 1076.51C498.654 1126.82 518.744 1176.94 537.067 1227.29L520.226 1232.3C519.855 1232.45 517.544 1232.62 517.059 1232.67C510.117 1228.26 500.023 1194.39 496.453 1184.55L471.032 1116.39C460.406 1087.77 447.751 1059.64 439.263 1030.21C431.027 1001.66 453.824 987.841 477.706 982.331Z"/><path fill="#ACD9F1" transform="scale(0.5 0.5)" d="M748.839 1029.39C752.935 1025.83 757.813 1020.1 762.741 1025.1C764.012 1029.93 763.161 1031.86 760.674 1036.17C759.675 1037.91 758.602 1039.61 757.46 1041.26L749.321 1057.06C737.371 1080.45 726.776 1104.5 717.588 1129.1C714.512 1137.4 701.958 1189.83 693.562 1187.26C678.167 1182.56 636.428 1155.67 623.267 1145.61C628.618 1139.15 633.62 1132.21 638.621 1125.46C654.476 1130.13 666.658 1139.43 681.654 1146.74C689.427 1112.89 713.938 1071.5 735.158 1043.71C739.278 1038.91 744.356 1033.95 748.839 1029.39Z"/><path fill="#ACD9F1" transform="scale(0.5 0.5)" d="M1541.25 648.165C1544.75 647.597 1544.75 647.504 1548.46 647.959C1551.3 649.874 1550.51 648.608 1551.21 651.693C1549.15 658.341 1527.92 677.614 1521.08 685.546C1497.42 712.959 1478.21 742.471 1457.38 771.644C1447.56 785.404 1427.41 752.884 1421.77 745.478C1416.23 738.383 1409.7 731.049 1403.8 724.167C1405.66 721.985 1409.05 717.777 1411.25 716.086C1414.37 713.735 1418.29 712.717 1422.15 713.257C1432.23 714.695 1442.79 730.081 1449.15 738.133C1468.21 709.936 1508.96 659.474 1541.25 648.165Z"/><path fill="#ACD9F1" transform="scale(0.5 0.5)" d="M623.663 1076.18C634.919 1071.2 679.479 1049.68 687.849 1060.45C688.029 1062.74 687.916 1068.13 686.242 1069.24C675.391 1076.42 652.787 1083.18 641.039 1088.15C630.979 1092.35 598.694 1107.74 591.748 1096.55C591.975 1085.39 614.724 1078.53 623.663 1076.18Z"/><path fill="#ACD9F1" transform="scale(0.5 0.5)" d="M659.368 999.978C664.258 999.885 666.071 999.76 668.874 1004C668.956 1005.73 668.976 1007.06 668.18 1008.67C662.342 1020.49 598.398 1040.03 582.405 1047.02C579.055 1046.82 575.384 1045.68 573.287 1042.84C571.992 1041.09 571.937 1038.88 572.819 1036.93C578.314 1024.77 645.111 1004.64 659.368 999.978Z"/><path fill="#ACD9F1" transform="scale(0.5 0.5)" d="M681.441 961.939C691.778 965.74 700.368 969.547 710.382 974.034C717.265 990.884 723.88 1007.84 730.225 1024.9L721.922 1034.6L713.598 1046.52C703.981 1017.92 691.14 990.413 681.441 961.939Z"/><path fill="#ACD9F1" transform="scale(0.5 0.5)" d="M753.553 1087.44C758.174 1090.23 770.892 1128.98 773.832 1137.17L762.084 1164.55L760.563 1164.42C756.2 1158.42 745.199 1125.96 741.891 1116.65C745.457 1106.52 748.72 1097.06 753.553 1087.44Z"/><path fill="#ACD9F1" transform="scale(0.5 0.5)" d="M586.19 1138.61L588.998 1139.12C599.88 1148.23 580.191 1180.82 574.423 1190.92C567.081 1188.26 564.08 1186.94 557.21 1183.24C552.585 1180.13 549.224 1178.43 547.81 1173.01C550.597 1163.49 561.927 1169.02 567.801 1171.79C573.242 1157.33 575.555 1149.92 586.19 1138.61Z"/><path fill="#ACD9F1" transform="scale(0.5 0.5)" d="M564.755 1082.6C565.443 1082.77 566.13 1082.95 566.818 1083.12C577.436 1087.28 563.421 1115.02 561.13 1120.67C554.529 1136.95 547.405 1133.23 535.172 1126.98C530.773 1123.49 527.618 1121.49 526.517 1115.95C529.329 1106.52 541.246 1112.34 547.087 1114.92C552.438 1101.52 554.547 1092.81 564.755 1082.6Z"/><path fill="#ACD9F1" transform="scale(0.5 0.5)" d="M543.822 1025.57C546.512 1026.28 546.497 1026.54 548.754 1028.27C554.338 1038.68 537.969 1069.93 530.353 1077.71C525.838 1076.14 521.897 1074.09 517.598 1072.02C511.878 1069.85 507.443 1068.3 506.258 1061.67C509.734 1052.08 518.384 1056.53 524.945 1059.59C530.442 1045.07 532.811 1036.59 543.822 1025.57Z"/><path fill="#ACD9F1" transform="scale(0.5 0.5)" d="M746.537 1192.92L748.351 1193.25C748.685 1198.65 739.922 1214.43 737.034 1220.09L723.428 1225.65C713.928 1223.12 705.775 1221.52 696.171 1219.68L686.812 1217.35C705.591 1208.65 727.124 1200.65 746.537 1192.92Z"/><path fill="#057785" transform="scale(0.5 0.5)" d="M741.368 1415.85C744.86 1415.7 744.698 1415.81 748.058 1416.95C750.986 1419.58 750.914 1420.41 751.867 1424.19C748.005 1423.96 748.127 1424.03 744.585 1422.56C741.824 1419.83 742.084 1419.59 741.368 1415.85Z"/><path fill="#057785" transform="scale(0.5 0.5)" d="M697.509 1195.5C699.159 1194.6 701.226 1195.11 702.266 1196.67C703.306 1198.24 702.973 1200.34 701.5 1201.51C700.429 1202.36 698.97 1202.54 697.728 1201.96C696.486 1201.39 695.674 1200.17 695.627 1198.8C695.581 1197.43 696.309 1196.15 697.509 1195.5Z"/><path fill="#057785" transform="scale(0.5 0.5)" d="M1483.44 738.439C1485.88 739.096 1485.71 739.03 1487.34 740.979C1488.25 744.349 1487.67 745.235 1486.66 748.551C1485.65 747.805 1484.07 746.271 1483.08 745.374C1481.97 741.424 1482.21 742.854 1483.44 738.439Z"/></svg>