<?xml version="1.0" encoding="utf-8" ?><svg xmlns="http://www.w3.org/2000/svg" xmlns:xlink="http://www.w3.org/1999/xlink" width="788" height="788" viewBox="0 0 788 788"><clipPath id="cl_3"><rect width="788" height="788"/></clipPath><g clip-path="url(#cl_3)"><path fill="#057987" transform="matrix(0.5 0 0 0.5 -120 -116.5)" d="M405.924 152.497C438.264 151.109 473.417 152.271 505.902 152.519L645.346 152.77L1154.55 152.964L1481.51 152.445L1573.21 152.406C1609.37 152.396 1645.64 152.392 1681.57 157.259C1787.68 171.631 1883.71 273.829 1890.51 380.753C1891.39 394.582 1893.67 408.679 1894.05 422.624C1895.69 449.731 1894.11 476.449 1893.85 503.549L1893.88 610.646L1894.4 1051.12L1894.4 1461.56L1894.44 1562.06C1894.77 1601.27 1895.84 1634 1890.94 1673.14C1885.84 1720.94 1865.14 1760.19 1835.89 1798.08C1809.7 1832.01 1767.84 1863.78 1727.14 1878.84C1703.13 1887.72 1667.64 1892.07 1642.45 1895.01C1615.03 1896.64 1579.5 1895.83 1551.5 1895.87L1394.8 1895.99L912.164 1896.02L575.244 1895.68C521.139 1895.65 465.783 1897.12 411.994 1893.92C400.614 1893.25 386.042 1892.95 374.948 1891.54C332.448 1886.41 292.232 1869.49 258.863 1842.67C218.495 1810.84 179.258 1763.65 165.046 1713.8C149.656 1659.82 152.298 1603.79 152.342 1548.31L152.398 1414.11L152.59 954.892L152.679 584.121L152.467 476.784C152.399 443.709 151.745 401.797 156.988 369.022C172.92 269.419 253.668 182.422 352.158 160.193C370.037 156.158 387.984 154.613 405.924 152.497ZM1524.85 705.789C1512.48 720.924 1505.33 729.237 1507.36 750.082C1507.48 751.307 1507.61 752.531 1507.75 753.754C1508.65 770.092 1509.61 777.76 1500 792.044C1475.9 792.435 1415.73 794.961 1394.93 787.361C1389.56 769.575 1386.63 699.747 1395.73 682.521C1402.17 670.332 1461.26 675.837 1478.31 676.092C1484.34 670.549 1491.03 664.645 1496.79 658.905C1466.09 660.642 1433.47 656.798 1403.62 659.192C1395.33 660.818 1385.4 662.888 1380.28 670.307C1377.16 674.832 1376.04 681.285 1375.37 686.662C1373.43 702.184 1373.3 773.072 1376.34 786.268C1377.61 791.806 1380.22 800.64 1385.37 803.894C1399.36 812.746 1487.01 810.699 1503.62 806.016C1509.67 804.309 1515.67 802.199 1518.83 796.402C1530.02 775.824 1526.12 729.85 1524.85 705.789ZM1449.16 738.155C1434.88 719.742 1425.56 702.651 1403.62 723.924C1409.53 730.861 1416.77 738.924 1422.15 746.132C1426.04 751.404 1446.93 782.293 1454.5 773.384C1476.99 746.938 1494.54 716.174 1517.42 689.731C1523.81 682.346 1554.24 656.292 1548.24 648.697C1544.66 647.572 1544.37 647.794 1540.72 647.986C1503.17 667.703 1472.27 702.92 1449.16 738.155Z"/><path fill="#ABD8F0" transform="matrix(0.5 0 0 0.5 -120 -116.5)" d="M1209.79 451.39C1234.35 448.746 1270.31 452.569 1292.18 464.521C1382.94 514.139 1359.59 642.179 1319.16 716.738C1268.15 810.823 1184.06 880.269 1088.17 925.037C1057.95 939.148 1025.52 949.956 993.893 959.656C962.292 1058.32 906.017 1213.43 847.705 1294.54C1035.7 1372.71 1238.9 1538.35 1453.96 1460.59C1467.29 1455.77 1479.66 1450.53 1491.59 1442.98C1504.06 1435.08 1535.21 1395.86 1544.71 1425.71C1546.19 1431.2 1545.65 1437.62 1545.07 1443.19C1537.02 1512.55 1474.35 1567.33 1410.28 1585.38C1337.55 1605.87 1266.19 1597.97 1195.04 1575.4C1049.99 1529.39 933.071 1429.26 801.624 1356.76C772.429 1391.96 742.524 1416.06 703.652 1439.31C648.85 1471.23 582.686 1485.43 519.927 1471.93C461.852 1459.43 417.745 1410.01 433.782 1348.52C460.562 1245.84 593.565 1231.32 682.124 1243.05C703.854 1245.93 725.802 1251.65 747.1 1256.92C759.261 1228.91 775.721 1199.93 786.748 1172.18C812.334 1107.8 834.615 1041.27 858.092 976.013C746.43 976.628 602.745 927.616 582.414 801.948C563.115 682.658 638.348 574.471 757.576 553.617C783.44 549.773 826.188 548.759 848.036 566.007C884.007 594.404 831.122 594.534 816.332 597.027C696.573 617.213 637.048 770.982 717.279 863.433C757.403 909.669 820.113 916.429 877.132 918.61C884.075 887.892 897.685 855.798 908.392 826.009C959.161 684.76 1035.04 471.15 1209.79 451.39Z"/><path fill="#057987" transform="matrix(0.5 0 0 0.5 -120 -116.5)" d="M1227.09 509.352C1300.61 507.281 1274.57 616.446 1258.83 658.628C1221.65 758.212 1145.93 833.364 1050.31 877.803L1014.86 892.668C1024.49 861.274 1036.09 828.736 1046.38 797.402C1072.56 717.642 1100.35 636.53 1147.53 566.411C1169.4 533.909 1188.45 516.913 1227.09 509.352Z"/><path fill="#057987" transform="matrix(0.5 0 0 0.5 -120 -116.5)" d="M608.232 1297.48C643.199 1296.3 679.393 1305.27 712.631 1315.73C682.354 1357.66 652.003 1393.98 601.057 1412.09C576.314 1419.97 545.549 1424.1 523.232 1407.65C512.761 1400.02 505.881 1388.42 504.197 1375.57C500.895 1350.47 517.71 1328.52 537.895 1315.94C559.197 1302.67 583.918 1300.22 608.232 1297.48Z"/><path fill="#ABD8F0" transform="matrix(0.5 0 0 0.5 -120 -116.5)" d="M1353.92 870.182C1394.4 868.23 1448.68 881.665 1436.39 934.741C1430.8 958.91 1419.78 978.58 1409.3 1000.79L1375.49 1073.1C1351.63 1125.38 1299.04 1241.01 1319.33 1299.86C1322.83 1310.01 1330.89 1318.63 1341.02 1322.92C1355.77 1329.16 1376.47 1327.05 1391.41 1321.28C1453.98 1297.11 1502.19 1228.94 1538.12 1174.74C1549.26 1155.66 1559.34 1139.27 1571.13 1120.49C1590.66 1089.37 1608.18 1117.29 1615.4 1139.06C1620.41 1154.14 1601.12 1181.23 1592.14 1195.14C1538.91 1280.29 1473.56 1366.78 1372.22 1395.81C1306.21 1417.11 1211.47 1390.87 1195.19 1314.66C1172.72 1209.46 1239.13 1087.9 1280.26 995.584L1307.82 932.517C1314.64 916.841 1320.84 901.529 1329.49 886.706C1336.72 874.305 1340.59 873.587 1353.92 870.182Z"/><path fill="#ABD8F0" fill-opacity="0.98823529" transform="matrix(0.5 0 0 0.5 -120 -116.5)" d="M1403.62 659.192C1433.47 656.798 1466.09 660.642 1496.79 658.905C1491.03 664.645 1484.34 670.549 1478.31 676.092C1461.26 675.837 1402.17 670.332 1395.73 682.521C1386.63 699.747 1389.56 769.575 1394.93 787.361C1415.73 794.961 1475.9 792.435 1500 792.044C1509.61 777.76 1508.65 770.092 1507.75 753.754C1507.61 752.531 1507.48 751.307 1507.36 750.082C1505.33 729.237 1512.48 720.924 1524.85 705.789C1526.12 729.85 1530.02 775.824 1518.83 796.402C1515.67 802.199 1509.67 804.309 1503.62 806.016C1487.01 810.699 1399.36 812.746 1385.37 803.894C1380.22 800.64 1377.61 791.806 1376.34 786.268C1373.3 773.072 1373.43 702.184 1375.37 686.662C1376.04 681.285 1377.16 674.832 1380.28 670.307C1385.4 662.888 1395.33 660.818 1403.62 659.192Z"/><path fill="#ABD8F0" fill-opacity="0.98823529" transform="matrix(0.5 0 0 0.5 -120 -116.5)" d="M1540.72 647.986C1544.37 647.794 1544.66 647.572 1548.24 648.697C1554.24 656.292 1523.81 682.346 1517.42 689.731C1494.54 716.174 1476.99 746.938 1454.5 773.384C1446.93 782.293 1426.04 751.404 1422.15 746.132C1416.77 738.924 1409.53 730.861 1403.62 723.924C1425.56 702.651 1434.88 719.742 1449.16 738.155C1472.27 702.92 1503.17 667.703 1540.72 647.986Z"/></g></svg>
