<?xml version="1.0" encoding="utf-8" ?><svg xmlns="http://www.w3.org/2000/svg" xmlns:xlink="http://www.w3.org/1999/xlink" width="1024" height="559" viewBox="0 0 1024 559"><path fill="#E55A5A" d="M464.353 275.139C481.14 262.981 502.095 258.049 522.543 261.441C541.587 264.713 558.508 275.524 569.48 291.431C588.08 317.92 590.765 356.937 585.238 387.935C579.341 421.133 560.387 450.584 532.612 469.702C519.881 478.585 507.281 483.999 492.48 488.36C486.261 490.76 472.88 493.754 472.251 481.232C473.298 473.384 485.3 468.964 490.713 465.794C503.072 458.558 518.733 441.876 519.905 427.024C520.203 423.504 519.499 419.971 517.872 416.835C511.182 403.615 494.08 405.857 480.854 400.69C470.027 396.377 460.448 389.43 452.986 380.479C440.434 365.721 434.33 346.543 436.04 327.245C437.857 305.652 448.077 288.859 464.353 275.139Z"/><path fill="#D24B4A" d="M464.353 275.139C465.056 276.552 465.412 277.12 464.937 278.711C462.072 288.301 457.882 294.387 462.924 304.602C478.22 335.592 536.969 323.52 552.082 377.333C556.237 392.128 554.911 408.063 550.163 422.552C543.198 443.845 529.546 462.321 511.238 475.233C506.078 478.882 494.563 484.183 492.48 488.36C486.261 490.76 472.88 493.754 472.251 481.232C473.298 473.384 485.3 468.964 490.713 465.794C503.072 458.558 518.733 441.876 519.905 427.024C520.203 423.504 519.499 419.971 517.872 416.835C511.182 403.615 494.08 405.857 480.854 400.69C470.027 396.377 460.448 389.43 452.986 380.479C440.434 365.721 434.33 346.543 436.04 327.245C437.857 305.652 448.077 288.859 464.353 275.139Z"/><path fill="#284B56" d="M509.003 68.299C552.036 66.639 588.283 100.144 590.006 143.174C591.729 186.204 558.277 222.5 515.249 224.286C472.132 226.076 435.745 192.539 434.019 149.42C432.292 106.301 465.882 69.9625 509.003 68.299Z"/></svg>